HIERARCHY
ROOT Hips
{
    OFFSET 0.0 0.0 0.0
    CHANNELS 6 Xposition Yposition Zposition Zrotation Xrotation Yrotation
    JOINT Spine
    {
        OFFSET 0.0 5.0 0.0
        CHANNELS 3 Zrotation Xrotation Yrotation
        JOINT Chest
        {
            OFFSET 0.0 5.0 0.0
            CHANNELS 3 Zrotation Xrotation Yrotation
            JOINT Neck
            {
                OFFSET 0.0 8.0 0.0
                CHANNELS 3 Zrotation Xrotation Yrotation
                JOINT Head
                {
                    OFFSET 0.0 5.0 0.0
                    CHANNELS 3 Zrotation Xrotation Yrotation
                    End Site
                    {
                        OFFSET 0.0 3.0 0.0
                    }
                }
            }
            JOINT LeftShoulder
            {
                OFFSET -5.0 0.0 0.0
                CHANNELS 3 Zrotation Xrotation Yrotation
                JOINT LeftArm
                {
                    OFFSET 0.0 -10.0 0.0
                    CHANNELS 3 Zrotation Xrotation Yrotation
                    JOINT LeftForeArm
                    {
                        OFFSET 0.0 -10.0 0.0
                        CHANNELS 3 Zrotation Xrotation Yrotation
                        End Site
                        {
                            OFFSET 0.0 -3.0 0.0
                        }
                    }
                }
            }
        }
    }
}

MOTION
Frames: 44
Frame Time: 0.033333
970.000000 442.938926 135.666187 0.000000 0.000000 0.000000 0.000000 0.000000 0.000000 29.678605 6.232428 0.000000 180.000000 -4.465887 0.000000 29.744881 -4.806903 -0.000000 150.255119 -2.832391 30.000000 19.983107 -3.250321 0.000000 18.000000 0.187755 0.000000
1354.522934 467.411410 120.331407 0.000000 0.000000 0.000000 0.000000 0.000000 0.000000 150.622570 -5.685401 4.973798 -29.377430 7.592698 4.973798 140.176400 1.167479 3.759997 -12.221629 1.135895 29.763441 132.794256 1.659592 -3.759997 -2.626015 -0.240264 0.313953
969.997807 442.887864 133.906872 0.000000 0.000000 0.000000 0.000000 0.000000 0.000000 31.061399 1.887354 9.635073 180.000000 -8.029814 9.635073 30.285790 12.953061 7.460697 149.714210 3.995534 29.057495 19.151579 6.576912 -7.460697 18.000000 -0.446089 0.626666
1246.736984 514.278152 120.204384 0.000000 0.000000 0.000000 0.000000 0.000000 0.000000 143.557092 -32.086950 13.690942 -36.442908 29.067496 13.690942 133.761037 -9.641138 11.043737 -156.950665 -4.437008 27.893295 0.000000 0.000000 0.000000 1.928484 0.456968 0.936907
1245.221100 458.637464 105.356010 0.000000 0.000000 0.000000 0.000000 0.000000 0.000000 160.701064 -7.695808 16.886559 -19.298936 23.077466 16.886559 140.193827 -6.032678 14.452610 -157.554825 -5.406541 26.289200 29.500467 5.479343 -14.452610 -15.049953 -0.547934 1.243449
1257.365570 418.514181 99.122648 0.000000 0.000000 0.000000 0.000000 0.000000 0.000000 -143.710676 6.629765 19.021130 36.289324 -3.763605 19.021130 163.220413 9.117943 17.633558 11.688054 2.139203 24.270510 152.038385 -1.032872 -17.633558 -2.339948 -0.171365 1.545085
1275.099564 408.163741 101.063254 0.000000 0.000000 0.000000 0.000000 0.000000 0.000000 -132.929531 4.739473 19.960535 47.070469 6.847543 19.960535 173.491912 1.387877 20.536413 -160.709681 -4.683562 21.869059 33.138793 6.451147 -20.536413 -14.686121 -0.645115 1.840623
1290.611115 384.880857 108.554085 0.000000 0.000000 0.000000 0.000000 0.000000 0.000000 -132.705235 -2.434043 19.645745 47.294765 7.471810 19.645745 -173.778854 -0.997533 23.115397 20.496835 7.074796 19.122720 -161.220290 -4.582772 -23.115397 1.723235 0.373921 2.128896
1302.817154 380.305352 103.268902 0.000000 0.000000 0.000000 0.000000 0.000000 0.000000 -131.493915 0.079847 18.096541 48.506085 4.154762 18.096541 -165.393697 -2.772455 25.329838 23.154815 1.408309 16.074804 -178.200316 0.469595 -25.329838 0.138141 -0.125053 2.408768
1304.997711 379.563582 96.097137 0.000000 0.000000 0.000000 0.000000 0.000000 0.000000 -126.727972 -4.733848 15.410265 53.272028 -2.788427 15.410265 -160.219593 0.793842 27.144812 28.448880 -0.689099 12.773379 -174.368770 0.976954 -27.144812 0.079526 -0.022064 2.679134
1311.668472 386.890390 92.517050 0.000000 0.000000 0.000000 0.000000 0.000000 0.000000 -122.308728 -6.085733 11.755705 57.691272 -4.120681 11.755705 -158.801130 -3.838576 28.531695 150.942637 -5.428897 9.270510 -154.878332 -3.487268 -28.531695 2.695409 0.519647 2.938926
1305.131836 395.180186 97.408561 0.000000 0.000000 0.000000 0.000000 0.000000 0.000000 -125.112810 -7.474374 7.362491 54.887190 6.730297 7.362491 -146.487292 1.795157 29.468618 -175.167369 4.387137 5.621439 -159.224034 -4.223929 -29.468618 1.782042 0.512669 3.187120
1296.320457 392.734526 92.093816 0.000000 0.000000 0.000000 0.000000 0.000000 0.000000 -131.035750 -19.668969 2.506665 48.964250 11.471930 2.506665 -128.969563 -1.182764 29.940802 38.856147 6.606657 1.883716 -134.776850 1.071630 -29.940802 3.458429 -0.304365 3.422736
1306.963577 386.612041 70.690469 0.000000 0.000000 0.000000 0.000000 0.000000 0.000000 -124.469622 10.250170 -2.506665 55.530378 -5.500027 -2.506665 -109.994856 1.826022 29.940802 37.691309 -4.376167 -1.883716 -118.274788 1.408368 -29.940802 5.098336 -0.030377 3.644843
969.892723 442.572198 52.287638 0.000000 0.000000 0.000000 0.000000 0.000000 0.000000 41.287575 36.310623 -7.362491 180.000000 -11.621535 -7.362491 30.974696 -5.163145 29.468618 149.025304 -15.404966 -5.621439 15.072869 4.007848 -29.468618 18.000000 -0.024909 3.852566
969.876883 442.545207 68.692334 0.000000 0.000000 0.000000 0.000000 0.000000 0.000000 42.241956 -1.857268 -11.755705 180.000000 1.145576 -11.755705 30.826133 5.092760 28.531695 149.173867 -3.916409 -9.270510 14.823070 4.603469 -28.531695 18.000000 -0.291371 4.045085
969.859960 442.518116 59.800551 0.000000 0.000000 0.000000 0.000000 0.000000 0.000000 43.199779 24.501502 -15.410265 180.000000 -3.746072 -15.410265 30.649504 -0.566910 27.144812 149.350496 4.327561 -12.773379 14.587557 -5.212266 -27.144812 18.000000 0.161309 4.221640
969.841956 442.490926 47.682999 0.000000 0.000000 0.000000 0.000000 0.000000 0.000000 44.157210 4.824413 -18.096541 180.000000 10.159415 -18.096541 30.446417 -3.929602 25.329838 149.553583 -1.415947 -16.074804 14.366154 -3.017621 -25.329838 18.000000 -0.065558 4.381533
969.822873 442.463637 57.499226 0.000000 0.000000 0.000000 0.000000 0.000000 0.000000 45.110117 -47.263882 -19.645745 180.000000 12.814806 -19.645745 30.218633 -3.130146 23.115397 149.781367 10.988525 -19.122720 14.158653 2.164970 -23.115397 18.000000 0.413672 4.524135
969.802712 442.436251 58.241387 0.000000 0.000000 0.000000 0.000000 0.000000 0.000000 46.054109 5.084649 -19.960535 180.000000 -20.777909 -19.960535 29.968037 8.834252 20.536413 150.031963 -9.465222 -21.869059 13.964823 -0.411240 -20.536413 18.000000 0.345359 4.648882
1187.040939 541.658249 47.746829 0.000000 0.000000 0.000000 0.000000 0.000000 0.000000 82.806623 -19.959309 -19.021130 -97.193377 30.207944 -19.021130 45.395981 -5.461660 17.633558 -156.144455 -1.856499 -24.270510 0.000000 0.000000 0.000000 0.000000 0.000000 0.000000
1182.242889 522.024286 60.714665 0.000000 0.000000 0.000000 0.000000 0.000000 0.000000 -105.721938 10.714395 -16.886559 74.278062 15.961202 -16.886559 -155.708006 -2.942549 14.452610 -157.302521 -2.415987 -26.289200 0.000000 0.000000 0.000000 2.684983 0.226389 4.842916
1180.914459 527.065626 43.343686 0.000000 0.000000 0.000000 0.000000 0.000000 0.000000 88.055617 -5.530345 -13.690942 -91.944383 -1.309048 -13.690942 -158.862018 -1.954133 11.043737 -151.747289 -2.012099 -27.893295 0.000000 0.000000 0.000000 0.000000 0.000000 0.000000
1236.800194 541.387432 62.512986 0.000000 0.000000 0.000000 0.000000 0.000000 0.000000 -85.588400 15.733285 -9.635073 94.411600 -22.238307 -9.635073 -159.297106 3.878287 7.460697 -157.915391 -3.379376 -29.057495 26.607362 1.695990 -7.460697 14.926890 -0.368111 4.960574
1161.066513 575.006626 27.502875 0.000000 0.000000 0.000000 0.000000 0.000000 0.000000 -81.021168 0.770045 -4.973798 98.978832 1.236409 -4.973798 -102.851701 -0.584195 3.759997 -157.041007 -2.179993 -29.763441 21.429890 2.685584 -3.759997 10.859432 0.204030 4.990134
1255.636253 512.645942 43.586026 0.000000 0.000000 0.000000 0.000000 0.000000 0.000000 77.832564 -1.325419 -0.000000 -102.167436 3.617127 -0.000000 -158.264834 -2.406336 0.000000 -130.745502 2.167248 -30.000000 -157.699225 -2.711857 -0.000000 0.000000 0.000000 0.000000
1265.118484 521.473864 41.810729 0.000000 0.000000 0.000000 0.000000 0.000000 0.000000 64.078276 7.632903 4.973798 -115.921724 -2.850830 4.973798 41.397952 -5.201885 -3.759997 -139.329851 -3.831027 -29.763441 20.223252 1.113861 3.759997 -16.047574 0.001900 4.990134
1228.099480 522.138258 50.356714 0.000000 0.000000 0.000000 0.000000 0.000000 0.000000 71.050901 4.180398 9.635073 -108.949099 -13.846785 9.635073 150.099970 5.232272 -7.460697 -139.894702 -2.071900 -29.057495 -156.275691 -3.146031 7.460697 0.000000 0.000000 0.000000
1240.357246 528.695873 58.197419 0.000000 0.000000 0.000000 0.000000 0.000000 0.000000 65.413351 3.740124 13.690942 -114.586649 1.040474 13.690942 147.242328 -2.223206 -11.043737 -154.470720 -2.700263 -27.893295 25.557225 1.626675 11.043737 -15.444278 -0.162668 4.911436
1231.815262 551.380248 57.131539 0.000000 0.000000 0.000000 0.000000 0.000000 0.000000 56.412506 -8.960555 16.886559 -123.587494 14.876839 16.886559 -153.392336 -3.483234 -14.452610 -154.784582 -2.203637 -26.289200 24.191555 3.345741 14.452610 -15.580844 -0.334574 4.842916
1221.475182 508.360147 63.120131 0.000000 0.000000 0.000000 0.000000 0.000000 0.000000 77.450622 -6.070521 19.021130 -102.549378 0.829958 19.021130 -156.789784 -2.854443 -17.633558 -125.590168 3.032118 -24.270510 -160.017240 -3.971372 17.633558 1.833434 0.406633 4.755283
969.477684 442.100429 67.512359 0.000000 0.000000 0.000000 0.000000 0.000000 0.000000 54.932575 -32.107114 19.960535 180.000000 4.910194 19.960535 25.919122 3.272668 -20.536413 154.080878 -4.475488 -21.869059 12.612867 8.918298 20.536413 18.000000 -0.453515 4.648882
1480.140495 518.878891 71.028836 0.000000 0.000000 0.000000 0.000000 0.000000 0.000000 -110.621767 -87.259011 19.645745 69.378233 88.117120 19.645745 -158.235933 -2.747772 -23.115397 166.031448 0.801101 -19.122720 -155.186432 -2.163736 23.115397 2.641553 0.318911 4.524135
1271.640472 556.840560 73.220830 0.000000 0.000000 0.000000 0.000000 0.000000 0.000000 -94.404719 -7.095043 18.096541 85.595281 12.346915 18.096541 -62.417786 -0.702619 -25.329838 23.992813 9.069882 -16.074804 -76.856107 1.605162 25.329838 7.708835 -0.558355 4.381533
1258.556786 530.268441 68.452322 0.000000 0.000000 0.000000 0.000000 0.000000 0.000000 78.355945 1.460651 15.410265 -101.644055 -2.199351 15.410265 35.068294 1.041209 -27.144812 -54.090640 -2.500903 -12.773379 35.848220 6.111668 27.144812 -8.104639 -1.445320 4.221640
1250.800209 527.150567 85.731363 0.000000 0.000000 0.000000 0.000000 0.000000 0.000000 72.417769 5.808552 11.755705 -107.582231 -5.178536 11.755705 24.571109 1.524383 -28.531695 -39.196117 -4.936054 -9.270510 10.411117 1.719945 28.531695 -9.048616 1.339661 4.045085
1243.466148 571.776259 80.369903 0.000000 0.000000 0.000000 0.000000 0.000000 0.000000 86.301473 -11.719052 7.362491 -93.698527 16.529283 7.362491 24.553534 -5.711726 -29.468618 -153.460385 -3.045722 -5.621439 19.510484 2.852233 29.468618 -10.109500 -0.951760 3.852566
1261.883812 566.052918 97.152296 0.000000 0.000000 0.000000 0.000000 0.000000 0.000000 94.015209 -6.802659 2.506665 -85.984791 22.499672 2.506665 38.959993 -0.518800 -29.940802 -154.008305 -3.814811 -1.883716 20.870951 3.213997 29.940802 -10.872440 -0.773240 3.644843
1284.436798 527.190542 92.731796 0.000000 0.000000 0.000000 0.000000 0.000000 0.000000 111.186365 -4.599758 -2.506665 -68.813635 -10.872207 -2.506665 58.506163 6.228256 -29.940802 -19.138727 2.152154 1.883716 51.457372 -1.608870 29.940802 -5.203198 0.163836 3.422736
1272.860069 533.494012 82.647753 0.000000 0.000000 0.000000 0.000000 0.000000 0.000000 72.301471 -15.380491 -7.362491 -107.698529 4.996722 -7.362491 78.802573 2.407054 -29.468618 -154.772375 -4.444956 5.621439 26.927455 4.300304 29.468618 -15.307255 -0.430030 3.187120
1255.264664 498.243735 120.231216 0.000000 0.000000 0.000000 0.000000 0.000000 0.000000 164.596971 -36.097318 -11.755705 -15.403029 4.515464 -11.755705 125.849126 4.723054 -28.531695 -156.067666 -5.006650 9.270510 33.087561 5.247091 28.531695 -14.691244 -0.524709 2.938926
1259.202232 470.407684 119.043447 0.000000 0.000000 0.000000 0.000000 0.000000 0.000000 -139.980397 20.168635 -15.410265 40.019603 -20.560773 -15.410265 165.887722 -3.956972 -27.144812 -157.901492 -6.326140 12.773379 35.196094 5.554651 27.144812 -14.480391 -0.555465 2.679134
1236.502075 429.951335 125.688887 0.000000 0.000000 0.000000 0.000000 0.000000 0.000000 -113.295066 9.263676 -18.096541 66.704934 -0.948170 -18.096541 -174.664169 0.652378 -25.329838 -159.007335 -5.547887 16.074804 32.868990 6.521230 25.329838 -14.713101 -0.652123 2.408768
1253.359451 413.942538 110.508435 0.000000 0.000000 0.000000 0.000000 0.000000 0.000000 -123.348580 -10.698112 -19.645745 56.651420 7.090597 -19.645745 -167.815074 -0.852559 -23.115397 -159.603180 -5.051096 19.122720 32.791747 7.626318 23.115397 -14.720825 -0.762632 2.128896
